# xmcd
#
# Track frame offsets:
#  150
#  17776
#  31616
#  43680
#  56413
#  71434
#  87522
#  101403
#  114527
#  133061
#  143880
#  159111
#  175307
#  195918
#  214864
#  225742
#  236480
#  253048
#  266161
#  274578
#  289700
#  301133
#  312256
#
# Disc length: 4344 seconds
#
# Revision: 0
# Processed by: cddbd v1.5.2PL0 Copyright (c) Steve Scherf et al.
# Submitted via: AltoMP3_Maker 3.0
#
DISCID=3c10f617
DTITLE=Various Artist - Truckers, Kickers, Cowboy Angels, Vol. 2 (1969)
DYEAR=1900
DGENRE=
TTITLE0=The Byrds - Drug Store Truck Driving Man
TTITLE1=Flying Burrito Bros. - Christine's Tune
TTITLE2=Doug Sahm - Texas Me
TTITLE3=Glen Campbell - Galveston
TTITLE4=Bob Dylan - Lay, Lady Lay
TTITLE5=The Band - The Night They Drove Old Dixie down
TTITLE6=Flying Burrito Bros. - Wheels
TTITLE7=The Corvettes - Back Home Girl
TTITLE8=Doug Dillard and Gene Clark - Through the Morning, Through the Night
TTITLE9=Buck Owens - Who's Gonna Mow Your Grass
TTITLE10=Poco - Pickin' up the Pieces
TTITLE11=Doug Sahm - At the Crossroads
TTITLE12=The Band - Up on Cripple Creek
TTITLE13=Flying Burrito Bros. - Sin City
TTITLE14=The Corvettes - Level with Your Senses
TTITLE15=Linda Ronstadt - Silver Threads and Golden Needles
TTITLE16=Flying Burrito Bros. - Hot Burrito
TTITLE17=Elvis Presley - I'm Movin' on
TTITLE18=Sanland Bros. - Vaccination for the Blues
TTITLE19=Poco - Make Me Smile
TTITLE20=Linda Ronstadt - We Need a Whole Lot More Jesus
TTITLE21=Townes van Zandt - Lungs
TTITLE22=Kenny Rogers and The First Edition - Ruby
EXTD=
EXTT0=
EXTT1=
EXTT2=
EXTT3=
EXTT4=
EXTT5=
EXTT6=
EXTT7=
EXTT8=
EXTT9=
EXTT10=
EXTT11=
EXTT12=
EXTT13=
EXTT14=
EXTT15=
EXTT16=
EXTT17=
EXTT18=
EXTT19=
EXTT20=
EXTT21=
EXTT22=
PLAYORDER=
